HIERARCHY
	ROOT pelvis
	{
		OFFSET 0 0 0 
		CHANNELS 6 Xposition Yposition Zposition Zrotation Xrotation Yrotation
		JOINT lfemur_phantom
		{
			OFFSET 0 0.0899607 0 
			CHANNELS 3 Zrotation Xrotation Yrotation
			JOINT lfemur
			{
				OFFSET 0 0 -0.426035 
				CHANNELS 3 Zrotation Xrotation Yrotation
				JOINT ltibia
				{
					OFFSET 0 0 -0.409933 
					CHANNELS 3 Zrotation Xrotation Yrotation
					JOINT lfoot
					{
						OFFSET 0.105631 0 0.00135511 
						CHANNELS 3 Zrotation Xrotation Yrotation
						End Site
						{
							OFFSET 0.0352103 0 0.000451703
						}
					}
				}
			}
		}
		JOINT rfemur_phantom
		{
			OFFSET 0 -0.0899607 0 
			CHANNELS 3 Zrotation Xrotation Yrotation
			JOINT rfemur
			{
				OFFSET 0 0 -0.430137 
				CHANNELS 3 Zrotation Xrotation Yrotation
				JOINT rtibia
				{
					OFFSET 0 0 -0.390377 
					CHANNELS 3 Zrotation Xrotation Yrotation
					JOINT rfoot
					{
						OFFSET 0.106801 0 -0.00121178 
						CHANNELS 3 Zrotation Xrotation Yrotation
						End Site
						{
							OFFSET 0.0356003 0 -0.000403927
						}
					}
				}
			}
		}
		JOINT lowerback_phantom
		{
			OFFSET -0.05 0 0.107967 
			CHANNELS 3 Zrotation Xrotation Yrotation
			JOINT lowerback
			{
				OFFSET 0.0167886 0 0.161801 
				CHANNELS 3 Zrotation Xrotation Yrotation
				JOINT upperback
				{
					OFFSET 0 0 0 
					CHANNELS 3 Zrotation Xrotation Yrotation
					JOINT lclavicle_phantom
					{
						OFFSET 0 0 0.199349 
						CHANNELS 3 Zrotation Xrotation Yrotation
						JOINT lclavicle
						{
							OFFSET 0 0.164108 -0.0174105 
							CHANNELS 3 Zrotation Xrotation Yrotation
							JOINT lhumerus
							{
								OFFSET 0 0 -0.275026 
								CHANNELS 3 Zrotation Xrotation Yrotation
								JOINT lradius
								{
									OFFSET 0 0 -0.248775 
									CHANNELS 3 Zrotation Xrotation Yrotation
									End Site
									{
										OFFSET 0 0 -0.082925
									}
								}
							}
						}
					}
					JOINT rclavicle_phantom
					{
						OFFSET 0 0 0.199349 
						CHANNELS 3 Zrotation Xrotation Yrotation
						JOINT rclavicle
						{
							OFFSET 0 -0.165322 -0.0298984 
							CHANNELS 3 Zrotation Xrotation Yrotation
							JOINT rhumerus
							{
								OFFSET 0 0 -0.273337 
								CHANNELS 3 Zrotation Xrotation Yrotation
								JOINT rradius
								{
									OFFSET 0 0 -0.254845 
									CHANNELS 3 Zrotation Xrotation Yrotation
									End Site
									{
										OFFSET 0 0 -0.0849483
									}
								}
							}
						}
					}
					JOINT LowerNeck_phantom
					{
						OFFSET 0 0 0.199349 
						CHANNELS 3 Zrotation Xrotation Yrotation
						JOINT LowerNeck
						{
							OFFSET -0.0127292 -0.000602123 0.105365 
							CHANNELS 3 Zrotation Xrotation Yrotation
							End Site
							{
								OFFSET -0.00424307 -0.000200708 0.0351217
							}
						}
					}
				}
			}
		}
	}
MOTION
Frames:	13
Frame Time:	0.0166667
-0.00283017 0.894526 1.66533e-016 87.723 -50.2597 84.8346 14.4823 5.3399 -2.01853 31.1134 2.95647 4.88437 -3.61533 -13.8791 30.2434 -2.82698e-007 -1.57232e-006 8.99532 -5.93303 -8.59671 -0.281607 -30.1729 -6.77302 11.4672 6.40925 11.1352 14.8156 -5.68185e-007 4.83098e-007 27.5166 0.534109 0.786804 4.04372 4.03769 3.55187 1.72603 -0 0 -0 -10.9484 -12.476 -2.393 31.1954 28.1242 -15.0514 -1.88619 -2.60686 -125.907 1.58194e-005 2.71492 -16.3843 5.59062 4.46278 -0.436392 26.7305 -34.5731 -23.0389 7.44767 10.3735 -125.979 6.5726e-007 -0.549222 -9.84018 -4.33363 -0.871888 33.0141 11.7288 -17.2095 -66.9491 
-0.00286515 0.894525 0.000165 87.7371 -50.2165 84.8585 14.5987 5.34841 -2.04877 30.9564 2.93038 4.87147 -3.61009 -13.876 30.2608 1.40752e-006 -7.7194e-006 9.01341 -5.95438 -8.57947 -0.295764 -30.1823 -6.77789 11.4709 6.40359 11.1222 14.809 -6.80525e-007 -1.34887e-007 27.5226 0.50918 0.79832 4.03741 4.0428 3.52619 1.7396 -0 0 -0 -11.0126 -12.4668 -2.40562 31.1384 28.2971 -15.0178 -1.81911 -2.52281 -125.812 4.84392e-006 2.5425 -16.3247 5.61895 4.44951 -0.437315 26.6064 -34.6474 -23.2211 7.5269 10.4522 -126.067 -2.53985e-006 -0.602019 -9.86437 -4.3367 -0.808143 33.0092 12.0339 -17.5511 -66.7042 
-0.0028845 0.894534 0.000337 87.739 -50.1864 84.8765 14.7583 5.34533 -2.07439 30.7408 2.89235 4.84972 -3.5763 -13.7534 30.2711 5.66973e-007 -1.78676e-006 8.88672 -5.963 -8.5656 -0.311831 -30.1955 -6.78116 11.4704 6.39778 11.1061 14.7962 -1.07673e-007 6.30774e-007 27.5243 0.490766 0.803366 4.01921 4.05672 3.51811 1.76678 -0 0 -0 -11.0717 -12.4621 -2.41796 31.1257 28.48 -15.074 -1.77978 -2.47376 -125.751 8.34025e-006 2.37444 -16.2895 5.60492 4.42739 -0.434051 26.5082 -34.736 -23.4236 7.61369 10.5393 -126.16 -9.56227e-006 -0.657898 -9.94794 -4.35787 -0.784064 33.0332 12.4608 -17.9531 -66.4901 
-0.00288684 0.894532 0.00052 87.7367 -50.157 84.891 14.9596 5.3339 -2.11471 30.434 2.86392 4.86107 -3.52434 -13.4934 30.2138 -5.36421e-006 -4.57013e-006 8.50352 -5.97871 -8.55423 -0.332873 -30.1957 -6.7865 11.479 6.39154 11.085 14.7738 2.0597e-006 2.29921e-008 27.5274 0.473766 0.81106 3.99328 4.06996 3.50392 1.7917 -0 0 -0 -11.1252 -12.4566 -2.42886 31.114 28.675 -15.1581 -1.77567 -2.47163 -125.711 3.61348e-006 2.26305 -16.262 5.60009 4.41432 -0.432398 26.4117 -34.8256 -23.596 7.6731 10.5836 -126.261 -1.15262e-005 -0.743063 -10.0849 -4.36033 -0.755859 33.0938 12.9342 -18.3859 -66.2829 
-0.00288704 0.894521 0.00071 87.7317 -50.1292 84.9008 15.1685 5.3115 -2.17069 30.0324 2.85443 4.92337 -3.45911 -13.0993 30.0664 -7.38697e-006 3.49311e-006 7.59901 -5.99728 -8.54459 -0.359524 -30.1827 -6.79576 11.5001 6.38246 11.0577 14.7489 -9.06684e-007 3.35347e-007 27.5215 0.458659 0.820418 3.9604 4.07938 3.48782 1.81565 -0 0 -0 -11.1623 -12.4513 -2.43615 31.1069 28.8748 -15.2935 -1.78912 -2.49098 -125.705 1.9563e-006 2.2347 -16.2493 5.60015 4.40792 -0.431778 26.3219 -34.9161 -23.7393 7.71174 10.5948 -126.372 2.27684e-005 -0.840306 -10.2261 -4.33532 -0.729809 33.1935 13.4925 -18.8658 -66.0742 
-0.00289529 0.894495 0.000914 87.7302 -50.1033 84.9062 15.3046 5.28597 -2.2392 29.6333 2.87378 5.0368 -3.39356 -12.6646 29.8655 -1.58054e-005 5.30075e-006 6.30142 -6.02131 -8.53429 -0.395875 -30.1534 -6.8154 11.5455 6.37006 11.0267 14.7286 1.69184e-006 -1.37023e-007 27.5023 0.448297 0.826059 3.93568 4.08564 3.48276 1.83283 -0 0 -0 -11.178 -12.4553 -2.44043 31.1083 29.0704 -15.4962 -1.80464 -2.50976 -125.735 -7.58411e-006 2.26309 -16.2517 5.59798 4.40443 -0.431271 26.2421 -35.0058 -23.8608 7.73242 10.5806 -126.482 -2.15216e-005 -0.922038 -10.3117 -4.28946 -0.711236 33.3181 14.1757 -19.4086 -65.8422 
-0.00290564 0.89447 0.001129 87.7318 -50.0839 84.9018 15.2282 5.26804 -2.28707 29.4753 2.92103 5.15192 -3.34665 -12.3348 29.691 9.73937e-006 -2.89476e-006 5.07602 -6.02443 -8.52201 -0.429003 -30.1374 -6.84614 11.6031 6.35825 11.0021 14.7202 -3.86197e-007 2.37372e-007 27.4765 0.447318 0.825648 3.93017 4.09844 3.49279 1.84184 -0 0 -0 -11.1842 -12.4726 -2.44516 31.1331 29.2566 -15.7717 -1.8365 -2.54747 -125.806 1.45954e-006 2.30367 -16.2595 5.58386 4.40508 -0.430237 26.17 -35.0947 -23.964 7.75473 10.5717 -126.585 2.63025e-006 -0.962647 -10.343 -4.22945 -0.69814 33.4778 14.9953 -20.0215 -65.6186 
-0.0029048 0.89444 0.001358 87.7451 -50.0714 84.8974 15.1365 5.27023 -2.3581 29.4124 3.00199 5.30732 -3.32957 -12.1431 29.5401 -6.96507e-006 2.57081e-006 4.27561 -6.02834 -8.50323 -0.460289 -30.1224 -6.88389 11.6719 6.35392 10.9895 14.7092 -1.81649e-006 -1.06347e-006 27.4529 0.456024 0.825712 3.94196 4.11984 3.51519 1.84164 -0 0 -0 -11.1866 -12.4983 -2.45063 31.1707 29.4335 -16.1024 -1.91111 -2.6409 -125.912 9.23038e-006 2.35855 -16.255 5.55894 4.40898 -0.428682 26.1114 -35.178 -24.0367 7.79625 10.5973 -126.667 -1.28958e-006 -0.980591 -10.3758 -4.14944 -0.678866 33.6658 15.9302 -20.6956 -65.4026 
-0.00288135 0.89442 0.001573 87.7623 -50.0659 84.8893 14.931 5.28742 -2.40276 29.5316 3.08292 5.42315 -3.32184 -12.0622 29.4774 -2.60936e-006 3.42322e-006 3.90953 -6.01211 -8.48156 -0.471305 -30.1233 -6.9148 11.7222 6.35105 10.9802 14.6997 1.50878e-007 -8.34051e-008 27.4378 0.473007 0.823205 3.96499 4.14813 3.54494 1.83563 -0 0 -0 -11.1902 -12.5229 -2.45619 31.2212 29.5957 -16.4706 -2.02261 -2.78191 -126.041 -2.54329e-006 2.4205 -16.2334 5.5321 4.41152 -0.426845 26.0649 -35.2432 -24.0771 7.87113 10.6814 -126.719 -3.21917e-006 -0.966767 -10.3876 -4.04327 -0.657264 33.8654 16.9595 -21.3919 -65.17 
-0.00283563 0.894372 0.001792 87.7936 -50.0617 84.8928 14.8164 5.32276 -2.48444 29.6074 3.17564 5.56798 -3.32087 -12.0516 29.469 -1.76382e-005 4.63899e-006 3.96467 -6.02675 -8.45247 -0.485713 -30.0955 -6.94185 11.7794 6.35263 10.9708 14.6724 -1.16585e-006 -1.16789e-007 27.4357 0.489127 0.8297 3.9865 4.17783 3.57294 1.82626 -0 0 -0 -11.198 -12.5376 -2.46079 31.2961 29.7324 -16.8621 -2.1555 -2.94971 -126.182 -4.2784e-006 2.45683 -16.2153 5.51684 4.41116 -0.425625 26.0276 -35.2804 -24.0851 7.96682 10.8128 -126.723 -6.6363e-006 -0.913805 -10.3486 -3.89404 -0.629182 34.0795 18.0287 -22.1006 -64.9008 
-0.00275992 0.89431 0.002003 87.8248 -50.0555 84.8869 14.6116 5.36763 -2.53173 29.8331 3.2571 5.6581 -3.31981 -12.1235 29.5601 8.36393e-006 -1.28531e-006 4.42641 -6.05224 -8.42469 -0.484176 -30.0491 -6.95925 11.8294 6.34864 10.9494 14.6399 1.49075e-006 5.62005e-007 27.441 0.501736 0.842508 4.0104 4.20137 3.59941 1.82797 -0 0 -0 -11.1995 -12.5506 -2.46364 31.3943 29.8383 -17.2758 -2.27008 -3.09284 -126.305 7.53799e-006 2.49575 -16.2433 5.50629 4.40437 -0.424153 26.025 -35.2931 -24.072 8.02852 10.9282 -126.65 -8.57138e-006 -0.859026 -10.2915 -3.71151 -0.628403 34.2862 19.131 -22.7939 -64.5927 
-0.00266227 0.89424 0.002218 87.8445 -50.0422 84.8639 14.4139 5.41523 -2.55369 30.1412 3.32535 5.70489 -3.33396 -12.3139 29.7222 8.20578e-006 -4.18333e-006 5.2223 -6.11673 -8.40873 -0.485514 -29.966 -6.97684 11.897 6.34515 10.9241 14.5966 -8.01443e-007 -6.83551e-007 27.4425 0.510112 0.851752 4.04062 4.2189 3.62585 1.83565 -0 0 -0 -11.1929 -12.5696 -2.46581 31.5046 29.9178 -17.6996 -2.36808 -3.21684 -126.388 1.01418e-005 2.53863 -16.3112 5.49391 4.39939 -0.422719 26.0657 -35.2904 -24.0359 8.03149 10.9915 -126.504 2.73645e-006 -0.820014 -10.2574 -3.55561 -0.633526 34.4803 20.291 -23.5025 -64.2545 
-0.00254513 0.89418 0.002435 87.8459 -50.0251 84.8241 14.2413 5.45838 -2.53623 30.5055 3.36454 5.68856 -3.36657 -12.6144 29.9244 -2.35076e-006 -4.29465e-006 6.09218 -6.18653 -8.4053 -0.49415 -29.8766 -7.00248 11.9811 6.34273 10.9001 14.5519 1.59328e-006 -1.99147e-007 27.4264 0.519502 0.847957 4.07826 4.23921 3.65548 1.84369 -0 0 -0 -11.1882 -12.597 -2.47002 31.6136 29.9761 -18.1163 -2.46038 -3.33885 -126.419 -1.28603e-005 2.59976 -16.4166 5.47981 4.40275 -0.421946 26.1355 -35.2783 -23.9746 7.97283 10.9817 -126.324 -1.3411e-006 -0.797605 -10.2351 -3.44365 -0.621761 34.6611 21.4834 -24.2181 -63.9214 
